<?xml version="1.0" encoding="UTF-8" standalone="no"?>
<!-- Generator: Adobe Illustrator 21.0.0, SVG Export Plug-In . SVG Version: 6.00 Build 0)  -->

<svg
   xmlns:dc="http://purl.org/dc/elements/1.1/"
   xmlns:cc="http://creativecommons.org/ns#"
   xmlns:rdf="http://www.w3.org/1999/02/22-rdf-syntax-ns#"
   xmlns:svg="http://www.w3.org/2000/svg"
   xmlns="http://www.w3.org/2000/svg"
   xmlns:sodipodi="http://sodipodi.sourceforge.net/DTD/sodipodi-0.dtd"
   xmlns:inkscape="http://www.inkscape.org/namespaces/inkscape"
   version="1.1"
   id="Layer_1"
   x="0px"
   y="0px"
   viewBox="0 0 1155.3 801.6"
   xml:space="preserve"
   inkscape:version="0.91 r13725"
   sodipodi:docname="glovePatternStrokeMM.svg"
   width="326.05136mm"
   height="226.22932mm"><metadata
     id="metadata4299"><rdf:RDF><cc:Work
         rdf:about=""><dc:format>image/svg+xml</dc:format><dc:type
           rdf:resource="http://purl.org/dc/dcmitype/StillImage" /><dc:title></dc:title></cc:Work></rdf:RDF></metadata><defs
     id="defs4297" /><sodipodi:namedview
     pagecolor="#ffffff"
     bordercolor="#666666"
     borderopacity="1"
     objecttolerance="10"
     gridtolerance="10"
     guidetolerance="10"
     inkscape:pageopacity="0"
     inkscape:pageshadow="2"
     inkscape:window-width="1252"
     inkscape:window-height="622"
     id="namedview4295"
     showgrid="false"
     inkscape:document-units="mm"
     units="mm"
     inkscape:zoom="0.31686628"
     inkscape:cx="583.14942"
     inkscape:cy="319.46438"
     inkscape:window-x="0"
     inkscape:window-y="0"
     inkscape:window-maximized="0"
     inkscape:current-layer="Layer_1" /><style
     type="text/css"
     id="style4256">
	.st0{fill:none;stroke:#000000;stroke-width:1.5;stroke-miterlimit:10;}
</style><path
     style="fill:none;stroke:#000000;stroke-width:1.5;stroke-miterlimit:10"
     d="m 589.2,800.8 c 0,0 0.5,-3.1 1.4,-8.7 0.9,-5.6 2.2,-13.7 3.8,-23.6 1.6,-9.9 3.4,-21.6 5.4,-34.5 2,-12.9 4.1,-26.9 6.3,-41.4 2.2,-14.5 4.4,-29.5 6.5,-44.4 2.1,-14.9 4.2,-29.5 6,-43.4 1.8,-13.9 3.5,-26.9 4.8,-38.5 1.3,-11.6 2.3,-21.6 2.9,-29.5 0.6,-8.2 1.1,-20.4 1.4,-35.5 0.3,-15.1 0.7,-33.1 0.9,-52.9 0.2,-19.8 0.3,-41.3 0.4,-63.6 0.1,-22.2 0.1,-45.1 0.1,-67.4 0,-22.4 -0.1,-44.2 -0.2,-64.5 -0.1,-20.3 -0.2,-38.9 -0.3,-54.8 -0.1,-15.9 -0.2,-29.1 -0.2,-38.3 0,-9.2 -0.1,-14.7 -0.1,-15.1 0,-3 -0.2,-6 -0.7,-8.8 -0.5,-2.8 -1.1,-5.6 -2,-8.2 -0.9,-2.6 -1.9,-5.1 -3.1,-7.5 -1.2,-2.3 -2.6,-4.5 -4.2,-6.5 -1.5,-2 -3.2,-3.8 -5,-5.4 -1.8,-1.6 -3.8,-3 -5.8,-4.1 -2,-1.1 -4.2,-2 -6.4,-2.6 -2.2,-0.6 -4.5,-0.9 -6.9,-0.9 -2.4,0 -4.8,0.3 -7.1,0.9 -2.3,0.6 -4.5,1.5 -6.7,2.6 -2.2,1.1 -4.2,2.5 -6.1,4.1 -1.9,1.6 -3.7,3.4 -5.4,5.4 -1.7,2 -3.2,4.2 -4.5,6.5 -1.3,2.3 -2.5,4.8 -3.4,7.5 -0.9,2.6 -1.7,5.4 -2.2,8.2 -0.5,2.8 -0.8,5.8 -0.8,8.8 l 0,17.9 0,17.9 0,17.9 0,17.9 0,17.9 0,17.9 0,17.9 0,17.9 -0.4,0.4 -0.4,0.4 -0.4,0.4 -0.4,0.4 -0.4,0.4 -0.4,0.4 -0.4,0.4 -0.4,0.4 -0.4,-0.4 -0.3,-0.4 -0.4,-0.4 -0.3,-0.4 -0.3,-0.4 -0.4,-0.4 -0.3,-0.4 -0.3,-0.4 0,-26.9 0,-26.8 0,-26.9 0,-26.8 0,-26.9 0,-26.9 0,-26.8 0,-26.8 c 0,-3 -0.3,-6 -0.8,-8.9 -0.5,-2.9 -1.3,-5.6 -2.2,-8.3 -0.9,-2.7 -2.1,-5.1 -3.5,-7.5 -1.4,-2.4 -2.9,-4.5 -4.6,-6.5 -1.7,-2 -3.6,-3.8 -5.6,-5.4 -2,-1.6 -4.2,-2.9 -6.5,-4.1 -2.3,-1.1 -4.7,-2 -7.1,-2.6 -2.5,-0.6 -5,-0.9 -7.7,-0.9 -2.6,0 -5.2,0.3 -7.7,0.9 -2.5,0.6 -4.9,1.5 -7.1,2.6 -2.3,1.1 -4.4,2.5 -6.5,4.1 -2,1.6 -3.9,3.4 -5.6,5.4 -1.7,2 -3.3,4.2 -4.6,6.5 -1.3,2.3 -2.5,4.8 -3.5,7.5 -1,2.7 -1.7,5.4 -2.2,8.3 -0.5,2.9 -0.8,5.8 -0.8,8.9 l 0,21.5 0,21.5 0,21.5 0,21.5 0,21.5 0,21.5 0,21.5 0,21.5 -0.4,0.4 -0.3,0.4 -0.4,0.4 -0.4,0.4 -0.4,0.4 -0.3,0.4 -0.4,0.4 -0.4,0.4 -0.4,-0.4 -0.3,-0.4 -0.4,-0.4 -0.4,-0.4 -0.4,-0.4 -0.3,-0.4 -0.4,-0.4 -0.4,-0.4 0,-25 0,-25 0,-25 0,-25 0,-25 0,-25 0,-25 0,-25 c 0,-3 -0.2,-6 -0.7,-8.8 -0.4,-2.9 -1.1,-5.6 -1.9,-8.2 -0.9,-2.6 -1.9,-5.1 -3.2,-7.5 -1.3,-2.3 -2.7,-4.5 -4.3,-6.5 -1.6,-2 -3.4,-3.8 -5.4,-5.4 -2,-1.6 -4.1,-3 -6.4,-4.1 -2.3,-1.1 -4.8,-2 -7.4,-2.6 -2.6,-0.6 -5.4,-0.9 -8.3,-0.9 -2.6,0 -5.2,0.3 -7.7,0.9 -2.5,0.6 -4.9,1.5 -7.1,2.6 -2.2,1.1 -4.4,2.5 -6.5,4.1 -2.1,1.6 -3.9,3.4 -5.6,5.4 -1.7,2 -3.3,4.2 -4.6,6.5 -1.3,2.3 -2,4.4 -3,7 -1,2.6 -1.7,5.4 -2.2,8.3 -0.5,2.9 -0.8,5.8 -0.8,8.9 l 0,25 0,25 0,25 0,25 0,25 0,25 0,25 0,25 -0.3,0.4 -0.3,0.4 -0.3,0.4 -0.3,0.4 -0.3,0.4 -0.5,0.2 -0.3,0.4 -0.3,0.4 -0.4,-0.4 -0.4,-0.4 -0.4,-0.4 -0.4,-0.4 -0.4,-0.4 -0.4,-0.4 -0.4,-0.4 -0.4,-0.4 0,-21.5 0,-21.5 0,-21.5 0,-21.5 0,-21.5 0,-21.1 0,-21.5 0,-21.4 c 0,-3 -0.3,-6 -0.8,-8.9 -0.5,-2.9 -1.3,-5.6 -2.2,-8.3 -0.9,-2.7 -2.1,-5.1 -3.5,-7.5 -1.4,-2.4 -2.9,-4.5 -4.6,-6.5 -1.7,-2 -3.6,-3.8 -5.6,-5.4 -2,-1.6 -4.2,-2.9 -6.5,-4.1 -2.3,-1.1 -4.7,-2 -7.1,-2.6 -2.5,-0.6 -5,-0.9 -7.7,-0.9 -1.1,0 -2.2,0.1 -3.3,0.2 -1.1,0.1 -2.2,0.3 -3.2,0.5 -1.1,0.2 -2.1,0.5 -3.2,0.8 -1,0.3 -2.1,0.7 -3.1,1.1 -1,0.4 -2,0.9 -3,1.4 -1,0.5 -1.9,1.1 -2.9,1.7 -0.9,0.6 -1.9,1.3 -2.8,2 -0.9,0.7 -1.8,1.4 -2.6,2.2 -0.7,0.6 -1.3,1.3 -1.9,1.9 -0.6,0.6 -1.2,1.4 -1.8,2.1 -0.6,0.7 -1.1,1.4 -1.7,2.2 -0.5,0.8 -1,1.5 -1.5,2.3 -0.5,0.8 -1,1.6 -1.4,2.4 -0.4,0.8 -0.9,1.7 -1.2,2.5 -0.4,0.9 -0.8,1.7 -1.1,2.6 -0.3,0.9 -0.7,1.8 -0.9,2.7 -0.3,-0.9 -0.6,-1.8 -1,-2.7 -0.3,-0.9 -0.7,-1.8 -1.1,-2.6 -0.4,-0.9 -0.8,-1.7 -1.3,-2.5 -0.4,-0.8 -0.9,-1.6 -1.4,-2.4 -0.5,-0.8 -1,-1.6 -1.5,-2.3 -0.5,-0.7 -1.1,-1.5 -1.7,-2.2 -0.6,-0.7 -1.2,-1.4 -1.8,-2.1 -0.6,-0.7 -1.2,-1.3 -1.9,-1.9 -0.8,-0.8 -1.7,-1.6 -2.6,-2.3 -0.9,-0.7 -1.8,-1.4 -2.8,-2 -0.9,-0.6 -1.9,-1.2 -2.9,-1.7 -1,-0.5 -2,-1 -3,-1.4 -1,-0.4 -2.1,-0.8 -3.1,-1.1 -1,-0.3 -2.1,-0.6 -3.2,-0.8 -1.1,-0.2 -2.1,-0.4 -3.2,-0.5 -1.1,-0.1 -2.2,-0.2 -3.3,-0.2 -2.6,0 -5.2,0.3 -7.7,0.9 -2.5,0.6 -4.9,1.5 -7.1,2.6 -2.3,1.1 -4.4,2.5 -6.5,4.1 -2,1.6 -3.9,3.4 -5.6,5.4 -1.7,2 -3.3,4.2 -4.6,6.5 -1.3,2.3 -2.5,4.8 -3.5,7.5 -1,2.7 -1.7,5.4 -2.2,8.3 -0.5,2.9 -0.8,5.8 -0.8,8.9 l 0,21.5 0,21.5 0,21.5 0,21.5 0,21.5 0,21.5 0,21.5 0,21.5 -0.4,0.4 -0.4,0.4 -0.4,0.4 -0.4,0.4 -0.4,0.4 -0.4,0.4 -0.4,0.4 -0.4,0.4 -0.4,-0.4 -0.4,-0.4 -0.4,-0.4 -0.4,-0.4 -0.4,-0.4 -0.4,-0.4 -0.4,-0.4 -0.4,-0.4 0,-25.1 0,-25.1 0,-25.1 0,-24.7 0,-25.1 0,-25 0,-25.1 0,-25 c 0,-3 -0.3,-6 -0.8,-8.9 -0.5,-2.9 -1.3,-5.6 -2.2,-8.3 -0.9,-2.7 -2.1,-5.1 -3.5,-7.5 -1.4,-2.4 -2.9,-4.5 -4.6,-6.5 -1.7,-2 -3.6,-3.8 -5.6,-5.4 -2,-1.6 -4.2,-2.9 -6.5,-4.1 -2.3,-1.2 -4.7,-2 -7.1,-2.6 -2.4,-0.6 -5,-0.9 -7.7,-0.9 -2.7,0 -5.2,0.3 -7.7,0.9 -2.5,0.6 -4.9,1.5 -7.1,2.6 -2.2,1.1 -4.4,2.5 -6.5,4.1 -2.1,1.6 -3.9,3.4 -5.6,5.4 -1.7,2 -3.3,4.2 -4.6,6.5 -1.3,2.3 -2.5,4.8 -3.5,7.5 -1,2.7 -1.7,5.4 -2.2,8.3 -0.5,2.9 -0.8,5.8 -0.8,8.9 l 0,25 0,25.1 0,25 0,25 0,25.1 0,25.1 0,25 0,25.1 -0.4,0.4 -0.4,0.4 -0.4,0.4 -0.4,0.4 -0.4,0.4 -0.4,0.4 -0.4,0.4 -0.4,0.4 -0.4,-0.4 -0.4,-0.4 -0.4,-0.4 -0.4,-0.4 -0.4,-0.4 -0.4,-0.4 -0.4,-0.4 -0.4,-0.4 0,-21.5 0,-21.5 0,-21.5 0,-21.5 0,-21.5 0,-21.5 0,-21.6 0,-21.5 c 0,-3 -0.3,-6 -0.8,-8.9 -0.5,-2.9 -1.3,-5.6 -2.2,-8.3 -0.9,-2.7 -2.1,-5.1 -3.5,-7.5 -1.4,-2.4 -2.9,-4.5 -4.6,-6.5 -1.7,-2 -3.6,-3.8 -5.6,-5.4 -2,-1.6 -4.2,-2.9 -6.5,-4.1 -2.3,-1.1 -4.7,-2 -7.1,-2.6 -2.5,-0.6 -5,-0.9 -7.7,-0.9 -2.7,0 -5.2,0.3 -7.7,0.9 -2.5,0.6 -4.9,1.5 -7.1,2.6 -2.3,1.1 -4.4,2.5 -6.5,4.1 -2,1.6 -3.9,3.4 -5.6,5.4 -1.7,2 -3.3,4.2 -4.6,6.5 -1.3,2.3 -2.5,4.8 -3.5,7.5 -1,2.7 -1.7,5.4 -2.2,8.3 C 77.3,67.1 77,70 77,73.1 l 0,27 0,27 0,27 0,27 0,27 0,27 0,27 0,27 -0.3,0.4 -0.3,0.4 -0.3,0.4 -0.4,0.4 -0.3,0.4 -0.3,0.4 -0.3,0.4 -0.4,0.4 -0.3,-0.4 -0.3,-0.4 -0.3,-0.4 -0.4,-0.4 -0.3,-0.4 -0.3,-0.4 -0.3,-0.4 -0.4,-0.4 0,-18 0,-18 0,-18 0,-18 0,-18 0,-18 0,-18 0,-18 c 0,-1.4 -0.1,-2.9 -0.2,-4.3 -0.1,-1.4 -0.3,-2.8 -0.5,-4.2 -0.2,-1.4 -0.5,-2.8 -0.8,-4.1 -0.3,-1.4 -0.7,-2.7 -1.2,-4 -0.4,-1.3 -0.9,-2.6 -1.5,-3.9 -0.5,-1.3 -1.1,-2.5 -1.8,-3.7 -0.7,-1.2 -1.3,-2.4 -2.1,-3.5 -0.7,-1.1 -1.5,-2.2 -2.4,-3.3 -0.8,-1 -1.7,-2 -2.6,-2.9 -0.9,-0.9 -1.8,-1.8 -2.8,-2.6 -1,-0.8 -1.9,-1.5 -3,-2.2 -1.1,-0.7 -2,-1.3 -3.1,-1.9 -1.1,-0.6 -2.1,-1 -3.2,-1.5 -1.1,-0.5 -2.2,-0.8 -3.3,-1.1 -1.1,-0.3 -2.2,-0.5 -3.4,-0.6 -1.1,-0.1 -2.3,-0.2 -3.4,-0.2 -2.4,0 -4.7,0.3 -7,0.9 -2.3,0.6 -4.5,1.5 -6.6,2.6 -2.1,1.1 -4.1,2.5 -6,4.1 -1.9,1.6 -3.6,3.4 -5.2,5.4 -1.6,2 -3.1,4.2 -4.3,6.5 -1.2,2.3 -2.4,4.8 -3.3,7.5 -0.9,2.6 -1.6,5.4 -2.1,8.2 -0.5,2.8 -0.7,5.8 -0.7,8.8 0,0.4 0,5.7 -0.1,14.8 -0.1,9.1 -0.2,22 -0.3,37.6 -0.1,15.6 1.2,33.7 1.1,53.6 -0.1,20 -0.2,41.5 -0.2,63.7 0,22.1 0,44.8 0,66.9 0,22.1 0.2,43.7 0.4,63.7 0.2,20 0.5,38.3 0.9,53.9 0.4,15.6 0.9,28.5 1.6,37.6 0.6,7.9 1.6,18 2.9,29.6 1.3,11.6 3,24.6 4.8,38.5 1.8,13.9 3.9,28.5 6,43.4 2.1,14.9 4.4,29.9 6.5,44.4 2.1,14.5 4.3,28.5 6.3,41.4 2,12.9 3.8,24.6 5.4,34.5 1.6,9.9 2.9,18 3.8,23.6 0.9,5.6 1.4,8.7 1.4,8.7 l 68.4,0 68.4,0 68.4,0 68.4,0 68.6,0 68.4,0 68.4,0 68.4,0 z"
     id="path4259" /><path
     style="fill:none;stroke:#000000;stroke-width:1.5;stroke-miterlimit:10"
     d="m 818.3,671.7 c 0,0 0.4,-0.1 1.2,-0.2 0.8,-0.2 1.8,-0.4 3.2,-0.7 1.3,-0.3 2.9,-0.7 4.7,-1.1 1.8,-0.5 3.7,-1 5.7,-1.6 2,-0.6 4.1,-1.2 6.2,-1.9 2.1,-0.7 4.2,-1.5 6.3,-2.3 2,-0.8 4,-1.7 5.8,-2.6 1.8,-0.9 3.4,-1.9 4.8,-2.9 0.1,0 0.1,-0.1 0.2,-0.1 0.1,0 0.1,-0.1 0.2,-0.2 0.1,-0.1 0.1,-0.1 0.2,-0.1 0.1,-0.1 0.1,-0.1 0.2,-0.2 0.1,-0.1 0.1,-0.1 0.2,-0.2 0.1,0 0.1,-0.1 0.2,-0.1 0.1,0 0.1,-0.1 0.2,-0.2 0.1,-0.1 0.1,-0.1 0.2,-0.1 4.6,-4 8.6,-8.6 12.1,-13.6 3.5,-5 6.6,-10.4 9.3,-16.1 2.7,-5.7 5.1,-11.6 7.2,-17.7 2.1,-6.1 4,-12.3 5.7,-18.5 1.7,-6.2 3.3,-12.4 4.8,-18.4 1.5,-6 3.1,-11.9 4.6,-17.5 1.6,-5.6 3.3,-10.8 5.1,-15.6 1.9,-4.8 3.9,-9.1 6.2,-12.9 0.6,-1 1.3,-2 2,-3 0.7,-0.9 1.4,-1.9 2.1,-2.7 0.7,-0.9 1.4,-1.7 2.2,-2.5 0.7,-0.8 1.5,-1.5 2.3,-2.2 0.8,-0.7 1.5,-1.4 2.3,-2 0.8,-0.6 1.6,-1.2 2.4,-1.8 0.8,-0.6 1.6,-1.1 2.5,-1.6 0.8,-0.5 1.7,-1 2.5,-1.4 0.8,-0.4 1.6,-0.8 2.4,-1.1 0.8,-0.3 1.6,-0.7 2.4,-0.9 0.8,-0.2 1.6,-0.5 2.4,-0.8 0.8,-0.2 1.6,-0.4 2.5,-0.6 0.8,-0.2 1.6,-0.3 2.5,-0.4 0.8,-0.1 1.7,-0.2 2.5,-0.3 0.8,-0.1 1.7,-0.1 2.5,-0.1 0.8,0 1.7,0 2.5,0 2.1,0 4.2,0.2 6.2,0.5 2,0.3 4,0.6 5.9,1 1.9,0.4 3.8,0.9 5.6,1.4 1.8,0.5 3.5,1.1 5.1,1.6 1.6,0.6 3.1,1.1 4.5,1.7 1.4,0.6 2.6,1.1 3.7,1.6 1.1,0.5 2.1,0.9 2.9,1.3 0.8,0.4 1.4,0.7 1.9,0.8 0.4,-0.2 1.1,-0.5 1.9,-0.8 0.8,-0.4 1.8,-0.8 2.9,-1.3 1.1,-0.5 2.4,-1 3.8,-1.6 1.4,-0.6 2.9,-1.1 4.5,-1.7 1.6,-0.6 3.3,-1.1 5.1,-1.7 1.8,-0.5 3.7,-1 5.6,-1.4 1.9,-0.4 3.9,-0.8 5.9,-1 2,-0.3 4.1,-0.4 6.2,-0.5 0.8,0 1.7,0 2.5,0 0.8,0 1.7,0.1 2.5,0.1 0.8,0.1 1.7,0.2 2.5,0.3 0.8,0.1 1.6,0.3 2.5,0.4 0.8,0.2 1.6,0.4 2.5,0.6 0.8,0.2 1.6,0.5 2.4,0.8 0.8,0.3 1.6,0.6 2.4,0.9 0.8,0.3 1.6,0.7 2.4,1.1 0.9,0.4 1.7,0.9 2.5,1.4 0.8,0.5 1.7,1 2.5,1.6 0.8,0.6 1.6,1.2 2.4,1.8 0.8,0.6 1.6,1.3 2.3,2 0.8,0.7 1.5,1.5 2.3,2.2 0.7,0.8 1.5,1.6 2.2,2.5 0.7,0.9 1.4,1.8 2.1,2.7 0.7,0.9 1.4,1.9 2,3 2.3,3.8 4.4,8.1 6.2,12.9 1.9,4.8 3.5,10.1 5.1,15.6 1.6,5.6 3.1,11.4 4.6,17.5 1.5,6 3.1,12.2 4.8,18.4 1.7,6.2 3.6,12.4 5.7,18.5 2.1,6.1 4.5,12.1 7.2,17.7 2.7,5.7 5.8,11.1 9.3,16.1 3.5,5 7.5,9.6 12.1,13.6 0.1,0 0.1,0.1 0.2,0.1 0.1,0 0.1,0.1 0.2,0.2 0.1,0 0.1,0.1 0.2,0.1 0.1,0.1 0.1,0.1 0.2,0.2 0.1,0.1 0.1,0.1 0.2,0.2 0.1,0 0.1,0.1 0.2,0.1 0.1,0 0.1,0.1 0.2,0.2 0.1,0 0.1,0.1 0.2,0.1 1.4,1 3,2 4.8,2.9 1.8,0.9 3.8,1.8 5.8,2.6 2,0.8 4.2,1.6 6.3,2.3 2.1,0.7 4.2,1.3 6.2,1.9 2,0.6 3.9,1.1 5.7,1.6 1.8,0.5 3.4,0.8 4.7,1.1 1.3,0.3 2.4,0.5 3.2,0.7 0.8,0.2 1.2,0.2 1.2,0.2 -0.4,5.3 -1.6,11.3 -3.5,17.7 -1.9,6.4 -4.6,13.1 -8,20.1 -3.4,7 -7.7,14 -12.8,21 -5.1,7 -11,13.9 -17.8,20.5 -6.8,6.6 -14.5,12.8 -23.1,18.6 -8.6,5.7 -18.1,10.9 -28.5,15.2 -10.4,4.3 -21.8,7.9 -34.2,10.4 -12.4,2.5 -25.7,4 -40.1,4.2 l 0,0 0,0 0,0 0,0 0,0 0,0 0,0 0,0 0,0 0,0 0,0 0,0 0,0 0,0 0,0 0,0 c -1.4,0 -4.6,0 -9.3,-0.3 -4.7,-0.3 -10.9,-0.9 -18.1,-2 -7.2,-1.1 -15.3,-2.7 -24.1,-5.1 -8.7,-2.4 -18,-5.5 -27.4,-9.5 -9.4,-4.1 -18.9,-9.1 -28.1,-15.4 -9.2,-6.3 -18,-13.7 -26,-22.7 -8,-8.9 -15.3,-19.3 -21.3,-31.3 -6,-12 -11.3,-25.7 -14.4,-41.3 z"
     id="path4261" /><path
     d="m 1031.1,128.5 -1.1,0 -1.1,0 -1.1,0 -1.1,0 -1.1,0 -1.1,0 -1.1,0 -1.1,0 -0.4,0.9 -0.4,0.9 -0.4,1 -0.4,0.9 -0.4,0.9 -0.4,1 -0.4,0.9 -0.4,0.9 -0.2,0 -0.2,0 -0.2,0 -0.2,0 -0.2,0 -0.2,0 -0.2,0 -0.2,0 1.1,-2.7 1.1,-2.7 1.1,-2.7 1.1,-2.7 1.1,-2.7 1.1,-2.7 1.1,-2.7 1.1,-2.7 0.1,0 0.1,0 0.1,0 0.1,0 0.1,0 0.1,0 0.1,0 0.1,0 1.1,2.7 1.1,2.7 1,2.7 1.1,2.7 1,2.7 1.1,2.7 1.1,2.7 1,2.7 -0.2,0 -0.2,0 -0.2,0 -0.2,0 -0.2,0 -0.2,0 -0.2,0 -0.2,0 -0.4,-0.9 -0.4,-0.9 -0.4,-1 -0.4,-0.9 -0.4,-0.9 -0.4,-1 -0.4,-0.9 -0.1,-0.9 z"
     id="path4316" /><path
     d="m 1023,127.1 1,0 1,0 1,0 1,0 1,0 1,0 1,0 1,0 -0.4,-1 -0.4,-1 -0.4,-1 -0.4,-1 -0.4,-1 -0.4,-1 -0.4,-1 -0.4,-1 c 0,-0.1 -0.1,-0.2 -0.1,-0.2 0,-0.1 -0.1,-0.2 -0.1,-0.3 0,-0.1 -0.1,-0.2 -0.1,-0.3 0,-0.1 -0.1,-0.2 -0.1,-0.3 0,-0.1 -0.1,-0.2 -0.1,-0.3 0,-0.1 -0.1,-0.2 -0.1,-0.3 0,-0.1 -0.1,-0.2 -0.1,-0.4 0,-0.2 -0.1,-0.3 -0.1,-0.4 0,0.1 -0.1,0.2 -0.1,0.3 0,0.1 -0.1,0.2 -0.1,0.3 0,0.1 -0.1,0.2 -0.1,0.3 0,0.1 -0.1,0.2 -0.1,0.3 0,0.1 -0.1,0.2 -0.1,0.3 0,0.1 -0.1,0.2 -0.1,0.3 0,0.1 -0.1,0.2 -0.1,0.3 0,0.1 -0.1,0.2 -0.1,0.3 l -0.4,1 -0.4,1 -0.4,1 -0.4,1 -0.4,1 -0.4,1 -0.4,1 -0.4,1.1 z"
     id="path4265" /><path
     d="m 1019.8,204.3 0.7,0 0.7,0 0.7,0 0.7,0 0.7,0 0.7,0 0.7,0 0.7,0 c 0.3,0 0.6,0 0.9,0 0.3,0 0.6,0 0.9,0.1 0.3,0 0.6,0.1 0.8,0.1 0.3,0 0.5,0.1 0.8,0.1 0.2,0.1 0.5,0.1 0.7,0.2 0.2,0.1 0.4,0.1 0.6,0.2 0.2,0.1 0.4,0.2 0.6,0.3 0.2,0.1 0.3,0.2 0.5,0.3 0.2,0.1 0.3,0.2 0.4,0.4 0.1,0.1 0.3,0.3 0.4,0.4 0.1,0.1 0.2,0.3 0.3,0.5 0.1,0.2 0.2,0.3 0.3,0.5 0.1,0.2 0.2,0.4 0.2,0.5 0.1,0.2 0.1,0.4 0.2,0.6 0,0.2 0.1,0.4 0.1,0.6 0,0.2 0,0.4 0,0.7 0,0.1 0,0.3 0,0.4 0,0.1 0,0.3 -0.1,0.4 0,0.1 -0.1,0.3 -0.1,0.4 0,0.1 -0.1,0.3 -0.1,0.4 0,0.1 -0.1,0.3 -0.2,0.4 -0.1,0.1 -0.1,0.2 -0.2,0.4 -0.1,0.2 -0.1,0.2 -0.2,0.3 -0.1,0.1 -0.2,0.2 -0.2,0.3 -0.1,0.1 -0.2,0.2 -0.3,0.3 -0.1,0.1 -0.2,0.2 -0.3,0.3 -0.1,0.1 -0.2,0.2 -0.4,0.2 -0.1,0.1 -0.3,0.2 -0.4,0.2 -0.1,0.1 -0.3,0.1 -0.4,0.2 -0.1,0.1 -0.3,0.1 -0.5,0.2 -0.2,0 -0.3,0.1 -0.5,0.1 -0.2,0 -0.3,0.1 -0.5,0.1 l 0,0 0,0 0,0 0,0 0,0 0,0 0,0 0,0 c 0.2,0 0.4,0.1 0.6,0.1 0.2,0 0.4,0.1 0.6,0.1 0.2,0.1 0.4,0.1 0.5,0.2 0.2,0.1 0.3,0.1 0.5,0.2 0.2,0.1 0.3,0.1 0.5,0.2 0.1,0.1 0.3,0.2 0.4,0.2 0.1,0.1 0.3,0.2 0.4,0.3 0.1,0.1 0.2,0.2 0.3,0.3 0.1,0.1 0.2,0.2 0.3,0.3 0.1,0.1 0.2,0.2 0.2,0.4 0.1,0.1 0.1,0.3 0.2,0.4 0.1,0.1 0.1,0.3 0.2,0.4 0.1,0.1 0.1,0.3 0.1,0.4 0,0.1 0.1,0.3 0.1,0.5 0,0.2 0,0.3 0.1,0.5 0,0.2 0,0.3 0,0.5 0,0.3 0,0.5 0,0.7 0,0.2 -0.1,0.5 -0.1,0.7 0,0.2 -0.1,0.4 -0.2,0.6 -0.1,0.2 -0.1,0.4 -0.2,0.6 -0.1,0.2 -0.2,0.4 -0.3,0.6 -0.1,0.2 -0.2,0.3 -0.3,0.5 -0.1,0.2 -0.3,0.3 -0.4,0.5 -0.1,0.2 -0.3,0.3 -0.5,0.4 -0.2,0.1 -0.3,0.3 -0.5,0.4 -0.2,0.1 -0.4,0.2 -0.6,0.3 -0.2,0.1 -0.4,0.2 -0.6,0.3 -0.2,0.1 -0.4,0.2 -0.7,0.2 -0.3,0 -0.5,0.1 -0.7,0.2 -0.3,0 -0.5,0.1 -0.8,0.1 -0.3,0 -0.5,0.1 -0.8,0.1 -0.3,0 -0.6,0 -0.9,0 l -0.8,0 -0.8,0 -0.8,0 -0.8,0 -0.8,0 -0.8,0 -0.8,0 -0.8,0 0,-2.6 0,-2.7 0,-2.7 0,-2.6 0,-2.7 0,-2.7 0,-2.7 0.1,-2.6 0,0 0,0 0,0 0,0 0,0 0,0 0,0 0,0 z"
     id="path4322" /><path
     d="m 1021.2,213.9 0.6,0 0.6,0 0.6,0 0.6,0 0.6,0 0.6,0 0.6,0 0.6,0 c 0.3,0 0.5,0 0.7,0 0.2,0 0.5,0 0.7,0 0.2,0 0.4,0 0.6,-0.1 0.2,-0.1 0.4,-0.1 0.6,-0.1 0.2,0 0.4,-0.1 0.5,-0.1 0.1,0 0.3,-0.1 0.5,-0.2 0.1,-0.1 0.3,-0.1 0.4,-0.2 0.1,-0.1 0.3,-0.2 0.4,-0.2 0.1,-0.1 0.2,-0.2 0.3,-0.3 0.1,-0.1 0.2,-0.2 0.3,-0.3 0.1,-0.1 0.2,-0.2 0.2,-0.3 0.1,-0.1 0.1,-0.2 0.2,-0.4 0.1,-0.1 0.1,-0.3 0.2,-0.4 0,-0.1 0.1,-0.3 0.1,-0.4 0,-0.2 0.1,-0.3 0.1,-0.5 0,-0.2 0,-0.3 0,-0.5 0,-0.2 0,-0.3 0,-0.5 0,-0.2 0,-0.3 -0.1,-0.5 0,-0.2 -0.1,-0.3 -0.1,-0.4 0,-0.1 -0.1,-0.3 -0.2,-0.4 -0.1,-0.1 -0.1,-0.3 -0.2,-0.4 -0.1,-0.1 -0.2,-0.2 -0.3,-0.3 -0.1,-0.1 -0.2,-0.2 -0.3,-0.3 -0.1,-0.1 -0.2,-0.2 -0.4,-0.2 -0.2,0 -0.3,-0.1 -0.4,-0.2 -0.1,-0.1 -0.3,-0.1 -0.5,-0.2 -0.2,-0.1 -0.3,-0.1 -0.5,-0.2 -0.2,-0.1 -0.4,-0.1 -0.6,-0.1 -0.2,0 -0.4,-0.1 -0.6,-0.1 -0.2,0 -0.4,-0.1 -0.6,-0.1 -0.2,0 -0.5,0 -0.7,-0.1 -0.2,0 -0.5,0 -0.7,0 l -0.5,0 -0.5,0 -0.5,0 -0.5,0 -0.5,0 -0.5,0 -0.5,0 -0.5,0 0,1 0,1 0,1 0,1 0,1 0,1 0,1 -0.4,1 0,0 0,0 0,0 0,0 0,0 0,0 0,0 0,0 z"
     id="path4320" /><path
     d="m 1021.2,215.2 0,1.1 0,1.2 0,1.1 0,1.1 0,1.2 0,1.1 0,1.2 0,1.1 0.6,0 0.6,0 0.6,0 0.6,0 0.6,0 0.6,0 0.6,0 0.6,0 c 0.5,0 1,0 1.4,-0.1 0.4,-0.1 0.8,-0.1 1.2,-0.2 0.4,-0.1 0.7,-0.2 1,-0.4 0.3,-0.1 0.6,-0.3 0.8,-0.5 0.2,-0.2 0.5,-0.4 0.6,-0.7 0.1,-0.3 0.3,-0.5 0.5,-0.8 0.1,-0.3 0.2,-0.6 0.3,-1 0.1,-0.4 0.1,-0.7 0.1,-1.1 0,-0.4 0,-0.7 -0.1,-1 -0.1,-0.3 -0.2,-0.6 -0.3,-0.9 -0.1,-0.3 -0.3,-0.5 -0.5,-0.8 -0.2,-0.3 -0.4,-0.4 -0.7,-0.6 -0.3,-0.2 -0.6,-0.3 -0.9,-0.5 -0.3,-0.1 -0.7,-0.3 -1.1,-0.3 -0.4,-0.1 -0.8,-0.2 -1.3,-0.2 -0.5,0 -1,-0.1 -1.5,-0.1 l -0.6,0 -0.6,0 -0.6,0 -0.6,0 -0.6,0 -0.6,0 -0.6,0 -0.1,0 z"
     id="path4269" /><path
     d="m 1029.2,297 c -0.3,0 -0.7,0 -1,0 -0.3,0 -0.6,0.1 -0.9,0.1 -0.3,0.1 -0.6,0.1 -0.9,0.2 -0.3,0.1 -0.6,0.2 -0.8,0.3 -0.2,0.1 -0.5,0.2 -0.8,0.4 -0.3,0.2 -0.5,0.3 -0.7,0.4 -0.2,0.1 -0.4,0.3 -0.6,0.5 -0.2,0.2 -0.4,0.4 -0.6,0.6 -0.2,0.2 -0.4,0.4 -0.5,0.7 -0.2,0.2 -0.3,0.5 -0.5,0.7 -0.1,0.3 -0.3,0.5 -0.4,0.8 -0.1,0.3 -0.2,0.6 -0.3,0.9 -0.1,0.3 -0.2,0.6 -0.3,0.9 -0.1,0.3 -0.1,0.6 -0.2,1 0,0.3 -0.1,0.7 -0.1,1 0,0.4 0,0.7 0,1.1 0,0.4 0,0.8 0,1.1 0,0.4 0.1,0.7 0.1,1.1 0,0.3 0.1,0.7 0.2,1 0.1,0.3 0.1,0.6 0.2,0.9 0.1,0.3 0.2,0.6 0.3,0.8 0.1,0.2 0.2,0.5 0.4,0.8 0.1,0.3 0.3,0.5 0.5,0.7 0.2,0.2 0.3,0.5 0.5,0.7 0.2,0.2 0.4,0.4 0.6,0.6 0.2,0.2 0.4,0.4 0.6,0.5 0.2,0.1 0.4,0.3 0.7,0.4 0.2,0.1 0.5,0.2 0.7,0.3 0.2,0.1 0.5,0.2 0.8,0.3 0.3,0.1 0.6,0.1 0.9,0.2 0.3,0.1 0.6,0.1 0.9,0.1 0.3,0 0.6,0 1,0 0.2,0 0.4,0 0.7,0 0.2,0 0.4,0 0.6,0 0.2,0 0.4,0 0.6,-0.1 0.2,0 0.4,0 0.6,-0.1 0.2,0 0.4,-0.1 0.6,-0.1 0.2,0 0.4,-0.1 0.6,-0.1 0.2,0 0.4,-0.1 0.6,-0.1 0.2,-0.1 0.4,-0.1 0.6,-0.2 l 0,0.2 0,0.2 0,0.2 0,0.2 0,0.2 0,0.2 0,0.2 0,0.2 c -0.2,0.1 -0.4,0.1 -0.5,0.2 -0.2,0.1 -0.4,0.1 -0.6,0.1 -0.2,0 -0.4,0.1 -0.6,0.1 -0.2,0 -0.4,0.1 -0.6,0.1 -0.2,0 -0.4,0.1 -0.7,0.1 -0.2,0 -0.5,0 -0.7,0.1 -0.2,0 -0.5,0 -0.7,0 -0.3,0 -0.5,0 -0.8,0 -0.4,0 -0.7,0 -1.1,0 -0.4,0 -0.7,-0.1 -1,-0.1 -0.3,-0.1 -0.7,-0.1 -1,-0.2 -0.3,-0.1 -0.6,-0.2 -0.9,-0.3 -0.3,-0.1 -0.6,-0.3 -0.9,-0.4 -0.3,-0.1 -0.5,-0.3 -0.8,-0.5 -0.3,-0.2 -0.5,-0.4 -0.7,-0.6 -0.2,-0.2 -0.5,-0.4 -0.7,-0.7 -0.2,-0.2 -0.4,-0.5 -0.6,-0.8 -0.2,-0.3 -0.4,-0.5 -0.5,-0.8 -0.2,-0.3 -0.3,-0.6 -0.4,-0.9 -0.1,-0.3 -0.3,-0.6 -0.4,-1 -0.1,-0.3 -0.2,-0.7 -0.3,-1.1 -0.1,-0.4 -0.2,-0.7 -0.2,-1.1 -0.1,-0.4 -0.1,-0.8 -0.1,-1.2 0,-0.4 0,-0.8 0,-1.2 0,-0.3 0,-0.5 0,-0.8 0,-0.3 0,-0.5 0.1,-0.8 0,-0.3 0.1,-0.5 0.1,-0.8 0,-0.2 0.1,-0.5 0.1,-0.7 0,-0.2 0.1,-0.5 0.2,-0.7 0.1,-0.2 0.1,-0.5 0.2,-0.7 0.1,-0.2 0.2,-0.4 0.2,-0.7 0.1,-0.2 0.2,-0.4 0.3,-0.6 0.1,-0.2 0.2,-0.4 0.3,-0.6 0.1,-0.2 0.2,-0.4 0.4,-0.6 0.1,-0.2 0.3,-0.4 0.4,-0.5 0.1,-0.2 0.3,-0.3 0.4,-0.5 0.1,-0.2 0.3,-0.3 0.5,-0.5 0.2,-0.1 0.3,-0.3 0.5,-0.4 0.2,-0.1 0.4,-0.3 0.5,-0.4 0.2,-0.1 0.4,-0.2 0.6,-0.4 0.2,-0.1 0.4,-0.2 0.6,-0.3 0.2,-0.1 0.4,-0.2 0.6,-0.3 0.2,-0.1 0.4,-0.2 0.6,-0.2 0.2,-0.1 0.4,-0.1 0.7,-0.2 0.2,-0.1 0.5,-0.1 0.7,-0.2 0.2,0 0.5,-0.1 0.7,-0.1 0.2,0 0.5,-0.1 0.7,-0.1 0.3,0 0.5,0 0.8,0 0.3,0 0.5,0 0.8,0 0.3,0 0.5,0 0.8,0.1 0.2,0 0.5,0.1 0.7,0.1 0.2,0 0.5,0.1 0.7,0.1 0.2,0.1 0.5,0.1 0.7,0.2 0.2,0.1 0.4,0.1 0.7,0.2 0.2,0.1 0.4,0.2 0.6,0.2 0.2,0.1 0.4,0.2 0.6,0.3 l -0.1,0.2 -0.1,0.2 -0.1,0.2 -0.1,0.2 -0.1,0.2 -0.1,0.2 -0.1,0.2 -0.1,0.2 c -0.2,-0.1 -0.4,-0.2 -0.6,-0.2 -0.2,-0.1 -0.4,-0.2 -0.6,-0.2 -0.2,-0.1 -0.4,-0.1 -0.6,-0.2 -0.2,-0.1 -0.4,-0.1 -0.6,-0.2 -0.2,0 -0.4,-0.1 -0.6,-0.1 -0.2,0 -0.4,-0.1 -0.6,-0.1 -0.2,0 -0.4,0 -0.6,-0.1 -0.3,-0.4 -0.5,-0.4 -0.7,-0.4 z"
     id="path4273" /><path
     style="fill:none;stroke:#000000;stroke-width:1.5;stroke-miterlimit:10"
     d="m 739,516.3 c 0,0 0.1,-0.4 0.4,-1 0.3,-0.7 0.7,-1.7 1.2,-2.9 0.6,-1.2 1.3,-2.7 2.1,-4.3 0.9,-1.6 1.9,-3.5 3.1,-5.4 1.2,-1.9 2.5,-4 4,-6.1 1.5,-2.1 3.2,-4.3 5.1,-6.4 1.9,-2.2 3.9,-4.3 6.1,-6.4 2.2,-2.1 4.6,-4.1 7.2,-6 l 18.2,-14.3 18.2,-14.3 18.2,-14.3 18.2,-14.3 18.2,-14.3 18.2,-14.3 18.2,-14.3 18.2,-14.3 3.1,4.3 3.1,4.3 3.1,4.3 3.1,4.3 3.1,4.3 3.1,4.3 3.1,4.3 3.1,4.3 -19.3,12.9 -19.3,12.9 -19.3,12.9 -18.7,12.9 -19.3,12.8 -19.3,12.9 -19.3,12.9 -19.3,12.9 c -2.6,1.9 -5.2,3.5 -7.9,5 -2.7,1.5 -5.3,2.7 -8,3.8 -2.6,1.1 -5.2,2 -7.7,2.8 -2.5,0.8 -4.9,1.4 -7.1,1.9 -2.2,0.5 -4.3,0.9 -6.1,1.2 -1.8,0.3 -3.4,0.5 -4.8,0.7 -1.3,0.1 -2.4,0.2 -3.1,0.3 -0.7,-0.3 -1.1,-0.3 -1.1,-0.3 z"
     id="path4277" /><path
     style="fill:none;stroke:#000000;stroke-width:1.5;stroke-miterlimit:10"
     d="m 1139.3,226.9 c 0,0 -0.4,0 -1.1,0.1 -0.7,0 -1.8,0.1 -3.1,0.3 -1.3,0.2 -2.9,0.4 -4.8,0.7 -1.8,0.3 -3.9,0.7 -6.1,1.2 -2.2,0.5 -4.6,1.1 -7.1,1.9 -2.5,0.8 -5.1,1.7 -7.7,2.8 -2.6,1.1 -5.3,2.3 -8,3.8 -2.7,1.5 -5.3,3.1 -7.9,5 l -22.4,15.1 -22.4,15.1 -22.4,15.1 -22.4,15.1 -22.4,15.1 -22.5,15 -22.4,15.1 -22.4,15.1 3.1,4.3 3.1,4.3 3.1,4.3 3.1,4.3 3.1,4.3 3.1,4.3 3.1,4.3 3.1,4.3 21.4,-16.6 21.4,-16.6 21.4,-16.6 21.4,-16.6 21.4,-16.6 21.4,-16.6 21.4,-16.6 21.4,-16.6 c 2.6,-1.9 5,-3.9 7.2,-6 2.2,-2.1 4.3,-4.2 6.1,-6.4 1.9,-2.2 3.5,-4.3 5.1,-6.4 1.6,-2.1 2.9,-4.2 4,-6.1 1.2,-1.9 2.2,-3.8 3.1,-5.4 0.9,-1.6 1.6,-3.1 2.1,-4.3 0.5,-1.2 1,-2.2 1.3,-2.9 0.1,-0.3 0.2,-0.6 0.2,-0.6 z"
     id="path4279" /><path
     style="fill:none;stroke:#000000;stroke-width:1.5;stroke-miterlimit:10"
     d="m 1139.3,132.4 c 0,0 -0.4,0 -1.1,0.1 -0.7,0 -1.8,0.1 -3.1,0.3 -1.3,0.2 -2.9,0.4 -4.8,0.7 -1.8,0.3 -3.9,0.7 -6.1,1.2 -2.2,0.5 -4.6,1.1 -7.1,1.9 -2.5,0.8 -5.1,1.7 -7.7,2.8 -2.6,1.1 -5.3,2.3 -8,3.8 -2.7,1.5 -5.3,3.1 -7.9,5 l -19.3,12.9 -19.3,12.8 -19.3,12.9 -19.3,12.9 -19.3,12.6 -19.3,12.9 -19.3,12.8 -19.3,12.9 3.1,4.3 3.1,4.3 3.1,4.3 3.1,4.3 3.1,4.3 3.1,4.3 3.1,4.3 3.1,4.3 18.2,-14.3 18.2,-14.3 18.2,-14.3 18.2,-14.3 18.2,-14.3 18.2,-14.3 18.2,-14.3 18.2,-14.3 c 2.6,-1.9 5,-3.9 7.2,-6 2.2,-2.1 4.3,-4.3 6.1,-6.4 1.9,-2.2 3.5,-4.3 5.1,-6.5 1.6,-2.2 2.9,-4.2 4,-6.1 1.2,-1.9 2.2,-3.8 3.1,-5.4 0.9,-1.6 1.6,-3.1 2.1,-4.3 0.6,-1.2 1,-2.2 1.3,-2.9 0.8,-0.6 0.9,-0.9 0.9,-0.9 z"
     id="path4283" /><path
     style="fill:none;stroke:#000000;stroke-width:1.5;stroke-miterlimit:10"
     d="m 739,421.9 c 0,0 0.1,-0.4 0.4,-1 0.3,-0.7 0.7,-1.7 1.2,-2.9 0.6,-1.2 1.3,-2.7 2.1,-4.3 0.9,-1.6 1.9,-3.5 3.1,-5.4 1.2,-1.9 2.5,-4 4,-6.1 1.5,-2.1 3.2,-4.3 5.1,-6.4 1.9,-2.1 3.9,-4.3 6.1,-6.4 2.2,-2.1 4.6,-4.1 7.2,-6 l 21.3,-16.5 21.3,-16.6 21.4,-16.5 21.3,-16.6 21.3,-16.5 21.4,-16.5 21.3,-16.6 21.4,-16.5 3.1,4.3 3.1,4.3 3.1,4.3 3.1,4.3 3.1,4.3 3.1,4.3 3.1,4.3 3.1,4.3 -22.4,15.1 -22.4,15.1 -22.4,15.1 -22.4,15.1 -22,15.1 -22.5,15 -22.4,15.1 -22.4,15.1 c -2.6,1.9 -5.3,3.5 -7.9,4.9 -2.7,1.4 -5.4,2.7 -8,3.8 -2.6,1.1 -5.2,2 -7.7,2.8 -2.5,0.8 -4.9,1.4 -7.1,1.9 -2.2,0.5 -4.3,0.9 -6.1,1.2 -1.8,0.3 -3.4,0.5 -4.8,0.7 -1.3,0.1 -2.4,0.2 -3.1,0.3 -0.7,0 -1.1,0.1 -1.1,0.1 z"
     id="path4285" /><path
     style="fill:none;stroke:#000000;stroke-width:1.5;stroke-miterlimit:10"
     d="m 772.3,310.3 c 0,0 0.2,-0.4 0.5,-1.1 0.4,-0.7 0.9,-1.8 1.6,-3.1 0.7,-1.3 1.6,-2.9 2.7,-4.7 1.1,-1.8 2.3,-3.8 3.8,-5.9 1.4,-2.1 3.1,-4.4 4.9,-6.7 1.8,-2.3 3.8,-4.7 6,-7.2 2.2,-2.5 4.6,-4.8 7.2,-7.2 2.6,-2.4 5.4,-4.6 8.4,-6.8 l 21.2,-16.4 21.2,-16.4 21.2,-16.4 21.2,-16.4 21.2,-16.4 21.2,-16.4 21.2,-16.4 21.2,-16.4 3.1,4.3 3.1,4.3 3.1,4.3 3.1,4.3 3.1,4.3 3.1,4.3 3.1,4.3 3.1,4.3 -22.2,15 -22.2,15 -22.2,15 -22.2,15 -22.2,15 -22.2,15 -22.2,15 -22.2,15 c -3,2.1 -6,4.1 -9.1,5.8 -3,1.7 -6.1,3.2 -9.1,4.6 -3,1.3 -5.9,2.5 -8.7,3.5 -2.8,1 -5.5,1.8 -7.9,2.5 -2.5,0.7 -4.8,1.3 -6.8,1.7 -2,0.5 -3.8,0.8 -5.3,1.1 -1.5,0.3 -2.7,0.4 -3.5,0.5 -1,-0.3 -1.5,-0.2 -1.5,-0.2 z"
     id="path4289" /><path
     style="fill:none;stroke:#000000;stroke-width:1.5;stroke-miterlimit:10"
     d="m 1139.3,44.9 c 0,0 -0.4,0 -1.1,0.1 -0.7,0 -1.8,0.1 -3.1,0.3 -1.3,0.1 -2.9,0.4 -4.8,0.7 -1.8,0.3 -3.9,0.7 -6.1,1.2 -2.2,0.5 -4.6,1.1 -7.1,1.9 -2.5,0.8 -5.1,1.7 -7.7,2.8 -2.6,1.1 -5.3,2.3 -8,3.8 -2.7,1.5 -5.3,3.1 -7.9,5 l -14.6,9.4 -14.6,9.4 -14.6,9.5 -14.6,9.4 -14.6,9.4 -14.6,9.5 -14.6,9.4 -14.6,9.4 3.1,4.3 3.1,4.3 3.1,4.3 3.1,4.3 3.1,4.3 3.1,4.3 3.1,4.3 3.1,4.3 13.5,-10.9 13.6,-10.9 13.5,-10.9 13.6,-10.9 13.5,-10.9 13.6,-10.9 13.6,-10.9 13.5,-10.9 c 2.6,-1.9 5,-3.9 7.2,-6 2.2,-2.1 4.3,-4.2 6.1,-6.4 1.9,-2.2 3.5,-4.3 5.1,-6.4 1.5,-2.1 2.9,-4.2 4,-6.1 1.2,-1.9 2.2,-3.8 3.1,-5.4 0.9,-1.6 1.6,-3.1 2.1,-4.3 0.5,-1.2 1,-2.2 1.3,-2.9 0.4,-0.6 0.5,-0.9 0.5,-0.9 z"
     id="path4291" /><path
     style="fill:none;stroke:#000000;stroke-width:1.5;stroke-miterlimit:10"
     d="m 275,347 c 2.6,0 5.2,0.7 7.6,2 2.5,1.3 4.8,3.2 7.1,5.7 2.3,2.5 4.4,5.5 6.4,9 2,3.5 3.9,7.5 5.6,11.9 1.7,4.4 3.3,9.3 4.6,14.4 1.3,5.1 2.5,10.7 3.5,16.6 1,5.9 1.7,12 2.2,18.3 0.5,6.3 0.8,12.9 0.8,19.7 0,6.8 -0.3,13.3 -0.8,19.7 -0.5,6.4 -1.2,12.5 -2.2,18.3 -1,5.8 -2.1,11.4 -3.5,16.6 -1.4,5.2 -2.9,10 -4.6,14.4 -1.7,4.4 -3.6,8.4 -5.6,11.9 -2,3.5 -4.2,6.5 -6.4,9 -2.2,2.5 -4.6,4.4 -7.1,5.7 -2.5,1.3 -5,2 -7.6,2 -2.6,0 -5.2,-0.7 -7.6,-2 -2.5,-1.3 -4.8,-3.2 -7.1,-5.7 -2.3,-2.5 -4.4,-5.5 -6.4,-9 -2,-3.5 -3.9,-7.5 -5.6,-11.9 -1.7,-4.4 -3.3,-9.3 -4.6,-14.4 -1.3,-5.1 -2.5,-10.7 -3.5,-16.6 -1,-5.9 -1.7,-12 -2.2,-18.3 -0.5,-6.4 -0.8,-12.9 -0.8,-19.7 0,-6.8 0.3,-13.3 0.8,-19.7 0.5,-6.4 1.2,-12.5 2.2,-18.3 1,-5.8 2.1,-11.4 3.5,-16.6 1.4,-5.2 2.9,-10 4.6,-14.4 1.7,-4.4 3.6,-8.4 5.6,-11.9 2,-3.5 4.2,-6.5 6.4,-9 2.2,-2.5 4.6,-4.4 7.1,-5.7 2.5,-1.4 5,-2 7.6,-2 z"
     id="path4293" /></svg>